<svg width="235" height="76" viewBox="0 0 235 76" fill="none" xmlns="http://www.w3.org/2000/svg">
<mask id="mask0_60_2" style="mask-type:alpha" maskUnits="userSpaceOnUse" x="6" y="6" width="40" height="39">
<ellipse cx="25.5613" cy="25.1558" rx="10.841" ry="25.0287" transform="rotate(-46.1582 25.5613 25.1558)" fill="#162B14"/>
</mask>
<g mask="url(#mask0_60_2)">
<ellipse cx="25.5613" cy="25.1558" rx="10.841" ry="25.0287" transform="rotate(-46.1582 25.5613 25.1558)" fill="#162B14"/>
<rect x="24.7522" y="-19" width="58.5346" height="30" transform="rotate(46.4748 24.7522 -19)" fill="#579360"/>
</g>
<ellipse cx="51" cy="23.5" rx="5" ry="16.5" fill="#162B14"/>
<path d="M47.5 44C47.5 44 47.9253 50.118 47.5 54C46.6459 61.7955 41 73 41 73" stroke="#162B14" stroke-width="4" stroke-linecap="round"/>
<circle cx="56.5" cy="38.5" r="21.5" fill="#D9D9D9" fill-opacity="0.6" stroke="black" stroke-width="4"/>
<ellipse cx="64.3425" cy="30.8691" rx="3.5" ry="6.6079" transform="rotate(-51.1836 64.3425 30.8691)" fill="white"/>
<path d="M70.6689 54.1385L91.5 73.5" stroke="black" stroke-width="5"/>
<path d="M98.912 54V51.024H102.752C103.76 51.024 104.608 50.84 105.296 50.472C106 50.104 106.56 49.616 106.976 49.008C107.408 48.384 107.72 47.688 107.912 46.92C108.104 46.136 108.2 45.336 108.2 44.52C108.2 42.952 107.8 41.76 107 40.944C106.216 40.112 104.984 39.696 103.304 39.696H98.912V36.72H103.304C106.056 36.72 108.144 37.384 109.568 38.712C110.992 40.024 111.704 41.944 111.704 44.472C111.704 45.72 111.536 46.912 111.2 48.048C110.88 49.184 110.352 50.2 109.616 51.096C108.896 51.992 107.96 52.704 106.808 53.232C105.672 53.744 104.28 54 102.632 54H98.912ZM97.04 54V36.72H100.448V54H97.04ZM114.899 36.72H118.307V54H114.899V36.72ZM121.752 50.256H121.992C122.376 50.464 122.832 50.656 123.36 50.832C123.888 51.008 124.464 51.152 125.088 51.264C125.728 51.36 126.384 51.408 127.056 51.408C127.792 51.408 128.424 51.352 128.952 51.24C129.48 51.112 129.888 50.912 130.176 50.64C130.464 50.352 130.608 49.968 130.608 49.488C130.608 48.896 130.424 48.464 130.056 48.192C129.688 47.92 129.088 47.712 128.256 47.568L126.432 47.256C125.408 47.096 124.52 46.816 123.768 46.416C123.016 46 122.432 45.448 122.016 44.76C121.616 44.056 121.416 43.2 121.416 42.192C121.416 40.944 121.704 39.896 122.28 39.048C122.872 38.184 123.744 37.536 124.896 37.104C126.048 36.656 127.464 36.432 129.144 36.432C129.912 36.432 130.656 36.504 131.376 36.648C132.112 36.776 132.712 36.944 133.176 37.152V40.152H132.96C132.512 39.944 131.944 39.752 131.256 39.576C130.584 39.4 129.808 39.312 128.928 39.312C128.096 39.312 127.36 39.408 126.72 39.6C126.096 39.776 125.608 40.064 125.256 40.464C124.92 40.864 124.752 41.384 124.752 42.024C124.752 42.824 124.984 43.384 125.448 43.704C125.912 44.024 126.608 44.272 127.536 44.448L129.312 44.736C130.192 44.88 130.984 45.136 131.688 45.504C132.392 45.856 132.944 46.352 133.344 46.992C133.76 47.616 133.968 48.416 133.968 49.392C133.968 50.256 133.792 51 133.44 51.624C133.104 52.248 132.624 52.76 132 53.16C131.376 53.544 130.64 53.824 129.792 54C128.96 54.192 128.048 54.288 127.056 54.288C126.352 54.288 125.672 54.24 125.016 54.144C124.376 54.064 123.768 53.96 123.192 53.832C122.632 53.688 122.152 53.536 121.752 53.376V50.256ZM136.254 45.36C136.254 43.552 136.598 41.984 137.286 40.656C137.99 39.312 139.022 38.272 140.382 37.536C141.758 36.8 143.446 36.432 145.446 36.432C146.262 36.432 146.99 36.496 147.63 36.624C148.286 36.752 148.83 36.92 149.262 37.128V40.152H149.022C148.606 39.912 148.102 39.728 147.51 39.6C146.918 39.456 146.286 39.384 145.614 39.384C144.334 39.384 143.262 39.616 142.398 40.08C141.534 40.544 140.878 41.224 140.43 42.12C139.982 43 139.758 44.08 139.758 45.36C139.758 46.64 139.982 47.728 140.43 48.624C140.878 49.504 141.534 50.176 142.398 50.64C143.262 51.104 144.334 51.336 145.614 51.336C146.286 51.336 146.918 51.272 147.51 51.144C148.102 51 148.606 50.808 149.022 50.568H149.262V53.592C148.83 53.8 148.286 53.968 147.63 54.096C146.99 54.224 146.262 54.288 145.446 54.288C143.446 54.288 141.758 53.928 140.382 53.208C139.022 52.488 137.99 51.464 137.286 50.136C136.598 48.792 136.254 47.2 136.254 45.36ZM151.371 45.36C151.371 43.6 151.707 42.048 152.379 40.704C153.051 39.36 154.019 38.312 155.283 37.56C156.547 36.808 158.075 36.432 159.867 36.432C161.643 36.432 163.163 36.808 164.427 37.56C165.691 38.312 166.659 39.36 167.331 40.704C168.003 42.048 168.339 43.6 168.339 45.36C168.339 47.12 168.003 48.672 167.331 50.016C166.659 51.36 165.691 52.408 164.427 53.16C163.163 53.912 161.643 54.288 159.867 54.288C158.075 54.288 156.547 53.912 155.283 53.16C154.019 52.408 153.051 51.368 152.379 50.04C151.707 48.696 151.371 47.136 151.371 45.36ZM154.875 45.36C154.875 46.592 155.067 47.656 155.451 48.552C155.851 49.448 156.419 50.136 157.155 50.616C157.891 51.096 158.795 51.336 159.867 51.336C160.923 51.336 161.819 51.096 162.555 50.616C163.291 50.136 163.851 49.448 164.235 48.552C164.635 47.656 164.835 46.592 164.835 45.36C164.835 44.128 164.635 43.064 164.235 42.168C163.851 41.272 163.291 40.584 162.555 40.104C161.819 39.624 160.923 39.384 159.867 39.384C158.795 39.384 157.891 39.624 157.155 40.104C156.419 40.584 155.851 41.272 155.451 42.168C155.067 43.064 154.875 44.128 154.875 45.36ZM171.308 53.544C171.372 53.24 171.412 52.848 171.428 52.368C171.46 51.888 171.484 51.408 171.5 50.928C171.516 50.432 171.524 50.024 171.524 49.704V36.72H174.932V49.992C174.932 50.392 174.908 50.768 174.86 51.12C174.828 51.472 174.788 51.752 174.74 51.96L174.284 51.216C174.476 51.264 174.684 51.304 174.908 51.336C175.132 51.352 175.388 51.36 175.676 51.36C176.54 51.36 177.228 51.232 177.74 50.976C178.268 50.72 178.66 50.36 178.916 49.896C179.172 49.416 179.348 48.84 179.444 48.168L181.172 36.72H184.628L182.828 48.408C182.652 49.48 182.372 50.392 181.988 51.144C181.62 51.88 181.124 52.48 180.5 52.944C179.892 53.392 179.148 53.72 178.268 53.928C177.388 54.136 176.348 54.24 175.148 54.24C174.524 54.24 173.9 54.208 173.276 54.144C172.652 54.08 172.02 53.976 171.38 53.832L171.308 53.544ZM187.626 54V36.72H191.034V54H187.626ZM189.498 54V51.024H199.122V54H189.498ZM189.498 46.584V43.728H197.61V46.584H189.498ZM189.498 39.696V36.72H198.882V39.696H189.498ZM204.24 49.44V46.56H208.344C209.176 46.56 209.864 46.368 210.408 45.984C210.968 45.6 211.376 45.104 211.632 44.496C211.888 43.872 212.016 43.216 212.016 42.528C212.016 41.52 211.736 40.784 211.176 40.32C210.632 39.856 209.912 39.624 209.016 39.624H204.24V36.72H209.064C210.456 36.72 211.624 36.952 212.568 37.416C213.528 37.864 214.256 38.52 214.752 39.384C215.248 40.232 215.496 41.248 215.496 42.432C215.496 43.536 215.296 44.528 214.896 45.408C214.512 46.272 213.984 47 213.312 47.592C212.64 48.184 211.88 48.64 211.032 48.96C210.184 49.28 209.288 49.44 208.344 49.44H204.24ZM202.368 54V36.72H205.776V54H202.368ZM212.4 54L208.512 48.648L211.8 48.12L216.24 53.832V54H212.4ZM220.904 54V51.024H224.744C225.752 51.024 226.6 50.84 227.288 50.472C227.992 50.104 228.552 49.616 228.968 49.008C229.4 48.384 229.712 47.688 229.904 46.92C230.096 46.136 230.192 45.336 230.192 44.52C230.192 42.952 229.792 41.76 228.992 40.944C228.208 40.112 226.976 39.696 225.296 39.696H220.904V36.72H225.296C228.048 36.72 230.136 37.384 231.56 38.712C232.984 40.024 233.696 41.944 233.696 44.472C233.696 45.72 233.528 46.912 233.192 48.048C232.872 49.184 232.344 50.2 231.608 51.096C230.888 51.992 229.952 52.704 228.8 53.232C227.664 53.744 226.272 54 224.624 54H220.904ZM219.032 54V36.72H222.44V54H219.032Z" fill="#162B14"/>
</svg>
